<?xml version="1.0" encoding="utf-8"?>
<!-- Generator: Adobe Illustrator 27.5.0, SVG Export Plug-In . SVG Version: 6.00 Build 0)  -->
<svg version="1.1" xmlns="http://www.w3.org/2000/svg" xmlns:xlink="http://www.w3.org/1999/xlink" x="0px" y="0px"
	 viewBox="0 0 500 500" style="enable-background:new 0 0 500 500;" xml:space="preserve">
<g id="BACKGROUND">
	<rect style="fill:#FFFFFF;" width="500" height="500"/>
</g>
<g id="OBJECTS">
	<g>
		<g>
			<g>
				<path style="fill:#C3CEE0;" d="M145.378,456.5h-16.559v-66.503h16.559c9.904,0,16.558,6.691,16.558,16.651v33.202
					C161.936,449.809,155.282,456.5,145.378,456.5z M131.819,453.5h13.559c8.363,0,13.558-5.23,13.558-13.649v-33.202
					c0-8.421-5.195-13.651-13.558-13.651h-13.559V453.5z M144.924,447.428h-6.49v-48.36h6.49c4.562,0,7.396,2.835,7.396,7.397
					v33.565C152.32,444.593,149.486,447.428,144.924,447.428z M141.434,444.428h3.49c2.876,0,4.396-1.521,4.396-4.397v-33.565
					c0-2.877-1.52-4.397-4.396-4.397h-3.49V444.428z"/>
			</g>
			<g>
				<path style="fill:#C3CEE0;" d="M198.853,456.5h-30.305v-66.503h30.305v12.071h-17.689v14.691h14.062v12.072h-14.062v15.597
					h17.689V456.5z M171.548,453.5h24.305v-6.071h-17.689v-21.597h14.062v-6.072h-14.062v-20.691h17.689v-6.071h-24.305V453.5z"/>
			</g>
			<g>
				<path style="fill:#C3CEE0;" d="M221.481,456.5h-17.557v-66.503h16.74c9.905,0,16.56,6.691,16.56,16.651v3.355
					c0,5.172-1.765,9.289-5.136,12.051c3.859,2.704,5.953,7.1,5.953,12.624v5.172C238.04,449.809,231.385,456.5,221.481,456.5z
					 M206.923,453.5h14.557c8.364,0,13.559-5.23,13.559-13.649v-5.172c0-5.332-2.212-9.191-6.398-11.162l-2.625-1.236l2.526-1.427
					c3.769-2.13,5.68-5.78,5.68-10.85v-3.355c0-8.421-5.196-13.651-13.56-13.651h-13.74V453.5z M221.027,447.428h-7.488v-22.051
					h6.58c5.432,0,8.303,2.871,8.303,8.304v6.35C228.423,444.593,225.589,447.428,221.027,447.428z M216.539,444.428h4.488
					c2.875,0,4.396-1.521,4.396-4.397v-6.35c0-3.816-1.487-5.304-5.303-5.304h-3.58V444.428z M219.302,419.306h-5.763v-20.238h6.67
					c4.563,0,7.397,2.835,7.397,7.397V411C227.607,416.434,224.735,419.306,219.302,419.306z M216.539,416.306h2.763
					c3.818,0,5.305-1.487,5.305-5.306v-4.535c0-2.877-1.521-4.397-4.397-4.397h-3.67V416.306z"/>
			</g>
			<g>
				<path style="fill:#C3CEE0;" d="M263.799,456.5h-12.616v-54.432h-10.524v-12.071h33.663v12.071h-10.522V456.5z M254.183,453.5
					h6.616v-54.432h10.522v-6.071h-27.663v6.071h10.524V453.5z"/>
			</g>
		</g>
		<g>
			<g>
				<path style="fill:#C3CEE0;" d="M268.343,155.021h-16.718V91.837h15.942c9.434,0,15.772,6.373,15.772,15.859v3.181
					c0,4.886-1.655,8.784-4.816,11.417c3.625,2.581,5.591,6.745,5.591,11.968v4.902
					C284.114,148.648,277.777,155.021,268.343,155.021z M254.625,152.021h13.718c7.878,0,12.771-4.927,12.771-12.857v-4.902
					c0-5.021-2.081-8.653-6.018-10.505l-2.625-1.235l2.525-1.428c3.545-2.005,5.343-5.442,5.343-10.216v-3.181
					c0-7.932-4.895-12.859-12.772-12.859h-12.942V152.021z M267.912,146.423h-7.175v-21.055h6.315c5.199,0,7.947,2.749,7.947,7.948
					v6.019C275,143.708,272.284,146.423,267.912,146.423z M263.737,143.423h4.175c2.713,0,4.088-1.375,4.088-4.088v-6.019
					c0-3.561-1.387-4.948-4.947-4.948h-3.315V143.423z M266.278,119.771h-5.541v-19.336h6.4c4.373,0,7.09,2.716,7.09,7.089v4.298
					C274.228,117.022,271.479,119.771,266.278,119.771z M263.737,116.771h2.541c3.562,0,4.949-1.388,4.949-4.949v-4.298
					c0-2.713-1.376-4.089-4.09-4.089h-3.4V116.771z"/>
			</g>
			<g>
				<path style="fill:#C3CEE0;" d="M301.477,155.021h-12.112V91.837h12.112V155.021z M292.364,152.021h6.112V94.837h-6.112V152.021z
					"/>
			</g>
			<g>
				<path style="fill:#C3CEE0;" d="M336.81,155.021h-28.362V91.837h12.113v51.586h16.249V155.021z M311.447,152.021h22.362v-5.597
					h-16.249V94.837h-6.113V152.021z"/>
			</g>
			<g>
				<path style="fill:#C3CEE0;" d="M369.219,155.021h-28.362V91.837h12.112v51.586h16.25V155.021z M343.857,152.021h22.362v-5.597
					h-16.25V94.837h-6.112V152.021z"/>
			</g>
		</g>
		<g>
			<g>
				<path style="fill:#3C4D68;" d="M139.871,210.837c-21.469,5.676-43.554-7.174-49.23-28.643s7.174-43.554,28.643-49.23
					c21.469-5.676,43.554,7.174,49.229,28.644C174.189,183.077,161.34,205.161,139.871,210.837z M120.051,135.864
					c-19.87,5.253-31.763,25.693-26.51,45.563s25.693,31.763,45.563,26.51c19.87-5.253,31.762-25.693,26.509-45.563
					C160.36,142.504,139.921,130.611,120.051,135.864z"/>
			</g>
			<g>
				<g>
					<path style="fill:#3C4D68;" d="M146.603,176.265c0.815,3.084,0.332,5.936-1.451,8.553c-1.782,2.618-4.679,4.737-8.691,6.355
						l2.086,7.891l-4.387,1.16l-2.005-7.585c-2.541,0.672-5.053,1.124-7.538,1.357c-2.486,0.233-4.582,0.198-6.287-0.103
						l-1.403-5.307c2.104,0.342,4.456,0.454,7.058,0.336c2.601-0.117,4.911-0.443,6.93-0.976l-3.957-14.966
						c-5.038-0.245-8.75-1.095-11.137-2.551c-2.386-1.455-3.987-3.725-4.802-6.809c-0.785-2.97-0.279-5.712,1.52-8.225
						c1.797-2.514,4.535-4.475,8.215-5.884l-1.637-6.191l4.387-1.16l1.619,6.123c4.202-0.989,8.449-1.214,12.74-0.675l-0.591,4.923
						c-3.732-0.444-7.378-0.329-10.935,0.344l3.902,14.761c3.859,0.193,6.817,0.594,8.87,1.203c2.053,0.611,3.684,1.501,4.892,2.674
						C145.207,172.685,146.076,174.27,146.603,176.265z M116.748,162.032c0.456,1.724,1.332,2.972,2.629,3.746
						c1.295,0.774,3.325,1.292,6.088,1.556l-3.48-13.163c-2.149,0.956-3.662,2.115-4.54,3.474
						C116.567,159.005,116.335,160.468,116.748,162.032z M140.938,178.236c-0.432-1.633-1.286-2.82-2.562-3.562
						c-1.275-0.743-3.497-1.229-6.663-1.46l3.498,13.231C139.952,184.465,141.861,181.728,140.938,178.236z"/>
				</g>
			</g>
		</g>
		<g>
			<g>
				<path style="fill:#3C4D68;" d="M469.776,235.787c-0.728,3.859-1.798,7.706-3.257,11.499
					c-6.34,16.481-18.719,29.509-34.856,36.681c-16.138,7.17-34.102,7.629-50.584,1.289c-16.481-6.339-29.509-18.718-36.681-34.855
					s-7.63-34.102-1.289-50.584c6.339-16.482,18.718-29.509,34.855-36.681c8.591-3.817,17.698-5.733,26.825-5.733
					c8.019,0,16.052,1.479,23.76,4.443c13.206,5.08,23.836,13.972,31.155,24.929c0.792-0.615,1.585-1.23,2.363-1.861
					c-7.647-11.366-18.714-20.587-32.442-25.868c-17.229-6.628-36.009-6.15-52.88,1.348c-16.869,7.497-29.81,21.115-36.438,38.345
					c-6.627,17.23-6.148,36.01,1.349,52.88c7.497,16.869,21.115,29.81,38.346,36.438c8.059,3.1,16.453,4.645,24.836,4.645
					c9.54,0,19.063-2.003,28.043-5.993c16.87-7.497,29.811-21.115,36.438-38.346c1.762-4.58,2.571-6.722,3.317-11.385
					C471.54,237.415,470.87,235.344,469.776,235.787z"/>
			</g>
			<g>
				<g>
					<path style="fill:#3C4D68;" d="M423.336,247.98c-2.071,5.385-5.8,9.052-11.186,11.002c-5.385,1.952-11.876,1.988-19.47,0.112
						l-5.299,13.777l-7.66-2.946l5.094-13.243c-4.436-1.706-8.596-3.704-12.487-5.995c-3.891-2.291-6.927-4.562-9.107-6.809
						l3.564-9.265c2.723,2.73,6.052,5.386,9.99,7.967c3.937,2.584,7.668,4.552,11.192,5.908l10.051-26.129
						c-7.127-5.695-11.667-10.872-13.624-15.534c-1.956-4.66-1.899-9.683,0.172-15.068c1.995-5.186,5.641-8.669,10.938-10.448
						c5.296-1.781,11.387-1.756,18.274,0.075l4.157-10.808l7.66,2.946l-4.112,10.689c7.207,3.001,13.671,7.168,19.39,12.503
						l-6.079,6.591c-5.002-4.603-10.467-8.297-16.395-11.076l-9.913,25.771c5.453,4.37,9.363,8.09,11.728,11.157
						c2.363,3.07,3.81,6.102,4.339,9.1C425.081,241.255,424.676,244.498,423.336,247.98z M394.646,195.498
						c-1.158,3.01-1.195,5.768-0.114,8.274c1.08,2.506,3.507,5.415,7.277,8.729l8.84-22.981c-4.163-0.875-7.608-0.779-10.335,0.284
						C397.587,190.869,395.697,192.767,394.646,195.498z M412.944,244.871c1.097-2.852,1.101-5.495,0.017-7.935
						c-1.083-2.439-3.824-5.505-8.221-9.196l-8.885,23.1C404.901,252.956,410.6,250.966,412.944,244.871z"/>
				</g>
			</g>
			<path style="fill:#3C4D68;" d="M472.151,223.812c-0.285-1.585-0.5-3.801-2.329-4.339c-1.827-0.538-3.765,1.464-5.134,2.415
				c-7.443,5.167-14.885,10.338-22.33,15.502c-2.293,1.591-4.6,3.173-6.988,4.616c4.874-6.939,9.875-13.79,15.015-20.536
				c0.785-1.03,1.572-2.057,2.363-3.082c0.745-0.966,1.659-1.926,2.169-3.045c1.13-2.482-0.876-3.748-2.812-4.715
				c-1.083-0.541-2.178-1.058-3.286-1.547c-0.982-0.434-2.339-0.724-3.183-1.384c0.11-0.253,0.346-0.472,0.512-0.694l1.189-1.597
				c0.842-1.131,1.685-2.262,2.527-3.393c3.666-4.923,8.255-10.707,11.921-15.631c1.15-1.544-1.142-3.481-2.298-1.928
				c-3.27,4.391-7.462,9.643-10.732,14.034c-1.585,2.129-3.171,4.258-4.756,6.387c-1.226,1.646-2.296,3.582-0.271,5.143
				c0.811,0.625,1.837,0.929,2.768,1.324c1.184,0.503,2.355,1.036,3.513,1.598c0.544,0.264,1.089,0.531,1.624,0.812
				c0.645,0.339,0.586,0.375,0.155,0.981c-0.747,1.053-1.587,2.05-2.373,3.074c-3.25,4.237-6.449,8.513-9.595,12.827
				c-3.527,4.838-6.986,9.725-10.381,14.657c-0.765,1.111,0.177,3.054,1.672,2.37c4.335-1.982,8.311-4.592,12.222-7.296
				c4.283-2.962,8.556-5.939,12.833-8.909c2.12-1.472,4.24-2.943,6.359-4.415c1.094-0.76,2.188-1.519,3.282-2.279
				c0.547-0.38,1.094-0.76,1.641-1.139c0.315-0.219,1.207-0.624,1.414-0.966c0.021,0.081,0.056,0.159,0.072,0.242
				c0.156,0.615,0.25,1.255,0.35,1.881c0.203,1.259,0.344,2.529,0.424,3.802c0.161,2.581,0.336,5.292-0.022,7.852
				c-0.266,1.91,2.684,2.457,2.951,0.542C473.239,232.656,472.924,228.111,472.151,223.812z"/>
		</g>
		<polygon style="fill:#FC7E7E;" points="58.452,68.372 94.562,43.5 121.008,85.121 177.018,64.027 210.758,105.372 226.261,94.572 
			235.522,146.006 179.088,129.392 190.967,119.34 157.892,94.893 111.485,121.879 		"/>
		<g>
			<g>
				<circle style="fill:#FC7E7E;" cx="401.27" cy="355.711" r="44.32"/>
			</g>
			<g>
				<path style="fill:#3C4D68;" d="M401.271,395.985c-22.207,0-40.274-18.067-40.274-40.274s18.067-40.274,40.274-40.274
					s40.273,18.067,40.273,40.274S423.478,395.985,401.271,395.985z M401.271,318.436c-20.553,0-37.274,16.722-37.274,37.274
					s16.722,37.274,37.274,37.274s37.273-16.722,37.273-37.274S421.823,318.436,401.271,318.436z"/>
			</g>
			<g>
				<g>
					<path style="fill:#3C4D68;" d="M416.615,364.282c0,3.19-1.196,5.823-3.589,7.898c-2.392,2.076-5.734,3.384-10.026,3.923v8.162
						h-4.538v-7.846c-2.628,0-5.172-0.205-7.635-0.615s-4.48-0.979-6.052-1.706v-5.489c1.947,0.868,4.192,1.578,6.737,2.129
						c2.545,0.552,4.861,0.827,6.949,0.827v-15.48c-4.809-1.524-8.18-3.295-10.115-5.313c-1.935-2.017-2.902-4.62-2.902-7.811
						c0-3.072,1.19-5.594,3.571-7.563c2.38-1.971,5.528-3.167,9.446-3.589v-6.403H403v6.333c4.315,0.118,8.479,0.985,12.489,2.604
						l-1.829,4.608c-3.495-1.383-7.049-2.204-10.66-2.462v15.269c3.682,1.173,6.438,2.316,8.268,3.43
						c1.829,1.115,3.178,2.393,4.046,3.835C416.181,360.464,416.615,362.218,416.615,364.282z M391.39,342.891
						c0,1.783,0.528,3.214,1.584,4.293c1.055,1.079,2.885,2.099,5.488,3.061v-13.615c-2.322,0.375-4.081,1.108-5.277,2.198
						C391.988,339.918,391.39,341.273,391.39,342.891z M410.635,364.74c0-1.689-0.522-3.055-1.566-4.099
						c-1.043-1.044-3.066-2.082-6.068-3.114v13.686C408.089,370.509,410.635,368.351,410.635,364.74z"/>
				</g>
			</g>
		</g>
		<g>
			<g>
				<g>
					<path style="fill:#FC7E7E;" d="M93.011,245.696c-0.381,0-0.746-0.22-0.913-0.59c-0.227-0.503-0.002-1.096,0.502-1.322
						c1.221-0.549,2.446-1.086,3.668-1.621c0.505-0.222,1.096,0.009,1.317,0.515c0.222,0.506-0.009,1.096-0.515,1.317
						c-1.216,0.532-2.435,1.066-3.649,1.613C93.288,245.667,93.149,245.696,93.011,245.696z"/>
				</g>
				<g>
					<path style="fill:#FC7E7E;" d="M103.615,437.66c-1.472,0-2.967-0.054-4.445-0.16c-0.551-0.039-0.965-0.518-0.926-1.068
						c0.04-0.551,0.506-0.971,1.069-0.926c2.659,0.19,5.345,0.204,7.987,0.039c0.555-0.03,1.026,0.384,1.061,0.936
						c0.035,0.551-0.384,1.026-0.936,1.061C106.163,437.62,104.881,437.66,103.615,437.66z M91.196,436.397
						c-0.066,0-0.133-0.007-0.2-0.021c-2.68-0.544-5.36-1.266-7.964-2.146c-0.523-0.177-0.804-0.744-0.627-1.268
						c0.176-0.523,0.742-0.806,1.267-0.627c2.525,0.853,5.124,1.553,7.723,2.081c0.541,0.109,0.891,0.638,0.781,1.179
						C92.079,436.07,91.662,436.397,91.196,436.397z M75.831,431.214c-0.146,0-0.294-0.032-0.434-0.1
						c-2.481-1.197-4.899-2.558-7.189-4.044c-0.463-0.301-0.595-0.92-0.294-1.383c0.3-0.465,0.917-0.597,1.383-0.295
						c2.22,1.44,4.565,2.76,6.97,3.921c0.498,0.24,0.706,0.838,0.466,1.335C76.559,431.006,76.202,431.214,75.831,431.214z
						 M62.237,422.378c-0.229,0-0.46-0.078-0.648-0.239c-2.107-1.795-4.096-3.735-5.91-5.767c-0.368-0.412-0.333-1.044,0.08-1.412
						c0.412-0.367,1.044-0.332,1.412,0.08c1.754,1.964,3.677,3.84,5.715,5.577c0.42,0.357,0.471,0.989,0.113,1.409
						C62.801,422.259,62.52,422.378,62.237,422.378z M51.462,410.281c-0.324,0-0.641-0.157-0.834-0.446
						c-0.384-0.578-0.757-1.165-1.12-1.759c-1.107-1.813-2.094-3.646-2.935-5.452c-0.233-0.501-0.016-1.096,0.485-1.328
						c0.499-0.232,1.095-0.017,1.329,0.484c0.809,1.737,1.76,3.505,2.828,5.253c0.349,0.572,0.709,1.138,1.079,1.694
						c0.306,0.46,0.18,1.081-0.28,1.387C51.844,410.227,51.652,410.281,51.462,410.281z M44.739,395.562
						c-0.447,0-0.855-0.303-0.969-0.757c-0.231-0.922-0.429-1.859-0.587-2.786c-0.306-1.796-0.481-3.638-0.521-5.474
						c-0.012-0.552,0.426-1.01,0.979-1.021c0.576,0.021,1.009,0.427,1.021,0.979c0.037,1.738,0.203,3.481,0.493,5.181
						c0.149,0.877,0.336,1.764,0.555,2.636c0.135,0.535-0.19,1.078-0.726,1.213C44.902,395.552,44.82,395.562,44.739,395.562z
						 M44.346,379.44c-0.061,0-0.123-0.006-0.185-0.017c-0.543-0.103-0.9-0.625-0.799-1.168c0.491-2.618,1.246-5.304,2.244-7.979
						c0.193-0.518,0.769-0.78,1.287-0.587c0.518,0.192,0.78,0.769,0.587,1.286c-0.958,2.569-1.683,5.143-2.152,7.649
						C45.238,379.105,44.818,379.44,44.346,379.44z M49.915,364.234c-0.16,0-0.322-0.038-0.473-0.119
						c-0.486-0.262-0.668-0.868-0.406-1.354c1.247-2.318,2.695-4.681,4.303-7.022c0.313-0.455,0.935-0.571,1.39-0.258
						c0.456,0.313,0.571,0.935,0.258,1.391c-1.567,2.282-2.977,4.583-4.19,6.837C50.616,364.043,50.271,364.234,49.915,364.234z
						 M59.057,350.816c-0.224,0-0.448-0.074-0.634-0.228c-0.427-0.351-0.488-0.98-0.138-1.407c1.675-2.038,3.504-4.103,5.436-6.138
						c0.38-0.401,1.013-0.417,1.414-0.037c0.4,0.381,0.417,1.014,0.037,1.414c-1.899,2-3.696,4.029-5.341,6.03
						C59.632,350.692,59.346,350.816,59.057,350.816z M70.118,338.91c-0.25,0-0.501-0.094-0.695-0.281
						c-0.397-0.384-0.407-1.018-0.023-1.414c1.546-1.598,3.556-3.72,5.394-5.966c0.35-0.429,0.979-0.491,1.407-0.141
						c0.427,0.35,0.49,0.979,0.141,1.406c-1.885,2.304-3.932,4.465-5.504,6.091C70.64,338.808,70.379,338.91,70.118,338.91z
						 M80.181,326.206c-0.164,0-0.331-0.04-0.484-0.126c-0.483-0.268-0.657-0.877-0.389-1.359c1.346-2.425,2.336-4.872,2.942-7.275
						c0.136-0.535,0.679-0.859,1.214-0.725c0.536,0.136,0.86,0.679,0.725,1.215c-0.649,2.57-1.703,5.18-3.133,7.756
						C80.874,326.02,80.533,326.206,80.181,326.206z M83.832,310.629c-0.5,0-0.933-0.375-0.992-0.885l-0.054-0.426
						c-0.308-2.26-1.025-4.55-2.193-6.999c-0.237-0.499-0.026-1.096,0.473-1.333c0.498-0.239,1.096-0.026,1.333,0.472
						c1.258,2.639,2.033,5.122,2.369,7.592l0.058,0.464c0.064,0.549-0.33,1.045-0.878,1.108
						C83.91,310.627,83.871,310.629,83.832,310.629z M77.369,295.892c-0.322,0-0.638-0.155-0.831-0.442
						c-0.587-0.874-1.187-1.744-1.786-2.613c-0.929-1.348-1.889-2.74-2.789-4.131c-0.3-0.464-0.167-1.083,0.297-1.383
						c0.464-0.3,1.083-0.167,1.383,0.297c0.883,1.365,1.835,2.746,2.755,4.082c0.604,0.876,1.208,1.752,1.8,2.633
						c0.308,0.458,0.186,1.08-0.272,1.388C77.755,295.837,77.561,295.892,77.369,295.892z M68.948,282.025
						c-0.396,0-0.771-0.236-0.928-0.626c-0.973-2.409-1.525-4.705-1.688-7.016c-0.029-0.418-0.045-0.835-0.047-1.251
						c-0.003-0.552,0.441-1.002,0.994-1.006c0.002,0,0.004,0,0.006,0c0.549,0,0.997,0.443,1,0.994
						c0.002,0.373,0.017,0.749,0.042,1.123c0.148,2.099,0.654,4.194,1.547,6.407c0.207,0.512-0.041,1.095-0.553,1.302
						C69.199,282.001,69.073,282.025,68.948,282.025z M68.866,266.207c-0.125,0-0.251-0.023-0.374-0.072
						c-0.512-0.207-0.76-0.79-0.553-1.302c1.012-2.507,2.458-4.933,4.3-7.21c0.348-0.429,0.979-0.497,1.407-0.148
						c0.429,0.347,0.496,0.977,0.149,1.406c-1.717,2.123-3.063,4.378-4.001,6.7C69.636,265.97,69.262,266.207,68.866,266.207z
						 M78.865,253.633c-0.301,0-0.599-0.136-0.796-0.394c-0.335-0.438-0.251-1.066,0.188-1.401c2.034-1.553,4.314-3.01,6.971-4.456
						c0.486-0.263,1.093-0.084,1.356,0.401c0.264,0.484,0.084,1.092-0.4,1.356c-2.566,1.396-4.762,2.798-6.713,4.288
						C79.29,253.567,79.076,253.633,78.865,253.633z"/>
				</g>
				<g>
					<path style="fill:#FC7E7E;" d="M115.486,436.449c-0.463,0-0.879-0.324-0.978-0.796c-0.113-0.54,0.234-1.07,0.774-1.183
						c1.29-0.27,2.573-0.586,3.813-0.941c0.532-0.146,1.085,0.156,1.236,0.688c0.152,0.53-0.156,1.084-0.687,1.236
						c-1.287,0.367-2.617,0.695-3.954,0.975C115.623,436.442,115.554,436.449,115.486,436.449z"/>
				</g>
			</g>
			<g>
				<g>
					<path style="fill:#FC7E7E;" d="M435.096,299.023c-0.201,0-0.404-0.061-0.58-0.187c-1.056-0.753-2.157-1.496-3.274-2.207
						c-0.466-0.297-0.604-0.915-0.307-1.381s0.914-0.601,1.381-0.307c1.146,0.73,2.278,1.493,3.362,2.268
						c0.449,0.32,0.554,0.945,0.232,1.395C435.716,298.877,435.408,299.023,435.096,299.023z"/>
				</g>
				<g>
					<path style="fill:#FC7E7E;" d="M305.05,442.216c-2.359,0-4.743-0.178-7.089-0.527c-0.546-0.082-0.923-0.591-0.842-1.137
						c0.082-0.546,0.594-0.916,1.137-0.842c2.571,0.385,5.172,0.547,7.768,0.494c0.568,0.012,1.009,0.428,1.021,0.979
						c0.011,0.552-0.427,1.009-0.979,1.021C305.727,442.211,305.389,442.215,305.05,442.216z M313.946,441.342
						c-0.467,0-0.885-0.328-0.979-0.804c-0.108-0.542,0.243-1.068,0.784-1.177c2.563-0.513,5.065-1.261,7.437-2.222
						c0.511-0.209,1.096,0.039,1.303,0.551s-0.039,1.096-0.551,1.303c-2.487,1.008-5.11,1.792-7.796,2.329
						C314.077,441.336,314.012,441.342,313.946,441.342z M290.373,439.864c-0.104,0-0.209-0.016-0.313-0.05
						c-2.598-0.855-5.109-1.935-7.468-3.207c-0.486-0.262-0.668-0.869-0.405-1.354c0.262-0.485,0.869-0.67,1.354-0.405
						c2.255,1.217,4.658,2.248,7.144,3.066c0.524,0.173,0.811,0.738,0.638,1.263C291.185,439.597,290.793,439.864,290.373,439.864z
						 M328.618,435.401c-0.333,0-0.658-0.166-0.849-0.469c-0.293-0.469-0.151-1.086,0.316-1.379
						c2.159-1.352,4.294-2.866,6.358-4.331l0.172-0.121c0.448-0.32,1.074-0.214,1.394,0.237c0.319,0.45,0.214,1.074-0.237,1.394
						l-0.171,0.121c-2.087,1.481-4.246,3.013-6.453,4.396C328.984,435.352,328.8,435.401,328.618,435.401z M407.166,429.821
						c-1.25,0-2.557-0.056-3.884-0.167c-0.551-0.045-0.959-0.528-0.913-1.079c0.046-0.55,0.518-0.971,1.079-0.913
						c1.692,0.141,3.313,0.189,4.896,0.143c0.953-0.028,1.917-0.092,2.862-0.19c0.553-0.049,1.041,0.343,1.099,0.892
						c0.057,0.55-0.343,1.041-0.892,1.099c-0.995,0.103-2.008,0.17-3.011,0.2C407.991,429.816,407.579,429.821,407.166,429.821z
						 M395.505,428.46c-0.068,0-0.138-0.007-0.208-0.021c-2.28-0.481-4.682-1.079-7.784-1.937c-0.532-0.147-0.845-0.698-0.697-1.23
						c0.147-0.533,0.703-0.842,1.23-0.697c3.062,0.847,5.426,1.435,7.665,1.907c0.54,0.114,0.886,0.645,0.771,1.186
						C396.383,428.138,395.968,428.46,395.505,428.46z M419.098,428.031c-0.43,0-0.826-0.278-0.957-0.71
						c-0.16-0.529,0.139-1.087,0.667-1.247c2.415-0.73,4.846-1.703,7.225-2.891c0.494-0.246,1.095-0.046,1.341,0.448
						c0.247,0.494,0.046,1.095-0.448,1.341c-2.479,1.238-5.015,2.252-7.537,3.016C419.291,428.017,419.194,428.031,419.098,428.031z
						 M341.784,426.454c-0.335,0-0.663-0.169-0.852-0.475c-0.29-0.471-0.145-1.087,0.325-1.376c2.594-1.601,4.971-2.799,7.268-3.664
						c0.517-0.195,1.095,0.066,1.288,0.583c0.195,0.517-0.066,1.094-0.583,1.288c-2.175,0.819-4.439,1.963-6.922,3.494
						C342.145,426.406,341.963,426.454,341.784,426.454z M380.119,424.363c-0.09,0-0.182-0.012-0.271-0.037
						c-2.115-0.596-4.897-1.357-7.66-1.974c-0.539-0.12-0.879-0.654-0.758-1.193c0.12-0.539,0.658-0.877,1.193-0.758
						c2.81,0.626,5.626,1.397,7.766,1.999c0.532,0.149,0.842,0.702,0.692,1.233C380.957,424.075,380.556,424.363,380.119,424.363z
						 M364.556,421.077c-0.032,0-0.064-0.002-0.097-0.005c-1.398-0.135-2.762-0.203-4.055-0.203c-0.009,0-0.018,0-0.025,0
						c-1.253,0-2.486,0.063-3.667,0.187c-0.554,0.061-1.041-0.342-1.099-0.89c-0.058-0.549,0.341-1.041,0.89-1.099
						c1.25-0.132,2.554-0.198,3.875-0.198c0.009,0,0.018,0,0.027,0c1.355,0,2.784,0.071,4.245,0.213
						c0.55,0.053,0.953,0.542,0.899,1.091C365.5,420.69,365.065,421.077,364.556,421.077z M433.316,421.009
						c-0.316,0-0.628-0.15-0.822-0.43c-0.315-0.454-0.202-1.077,0.251-1.392c2.082-1.444,4.15-3.08,6.147-4.861
						c0.412-0.366,1.044-0.332,1.412,0.08c0.368,0.413,0.332,1.045-0.08,1.412c-2.059,1.835-4.191,3.521-6.339,5.012
						C433.711,420.952,433.512,421.009,433.316,421.009z M445.207,410.465c-0.24,0-0.48-0.086-0.672-0.26
						c-0.409-0.371-0.439-1.004-0.068-1.412c1.733-1.909,3.419-3.95,5.009-6.066c0.333-0.441,0.96-0.529,1.4-0.199
						c0.441,0.332,0.53,0.959,0.199,1.4c-1.628,2.166-3.353,4.255-5.128,6.209C445.75,410.355,445.479,410.465,445.207,410.465z
						 M454.775,397.765c-0.182,0-0.366-0.05-0.531-0.153c-0.468-0.294-0.608-0.911-0.314-1.379c1.443-2.295,2.759-4.595,3.908-6.833
						c0.254-0.49,0.854-0.686,1.347-0.433c0.491,0.253,0.685,0.855,0.433,1.347c-1.177,2.29-2.521,4.64-3.994,6.983
						C455.432,397.6,455.107,397.765,454.775,397.765z M461.994,383.602c-0.121,0-0.244-0.021-0.364-0.068
						c-0.514-0.201-0.769-0.781-0.567-1.296l0.21-0.55c0.843-2.243,1.572-4.569,2.168-6.912c0.135-0.537,0.68-0.864,1.215-0.723
						c0.535,0.136,0.859,0.68,0.723,1.215c-0.613,2.415-1.364,4.812-2.232,7.123l-0.22,0.575
						C462.772,383.361,462.394,383.602,461.994,383.602z M465.918,368.21c-0.044,0-0.089-0.003-0.134-0.009
						c-0.548-0.073-0.932-0.577-0.858-1.124c0.345-2.57,0.547-5.201,0.601-7.821c0.012-0.552,0.466-0.965,1.021-0.979
						c0.553,0.012,0.99,0.469,0.979,1.021c-0.056,2.695-0.264,5.402-0.618,8.046C466.841,367.845,466.411,368.21,465.918,368.21z
						 M466.246,352.327c-0.512,0-0.948-0.391-0.995-0.91c-0.235-2.602-0.619-5.213-1.14-7.763c-0.11-0.541,0.238-1.069,0.779-1.18
						c0.539-0.108,1.069,0.238,1.18,0.779c0.536,2.622,0.931,5.308,1.173,7.983c0.05,0.55-0.355,1.036-0.906,1.086
						C466.307,352.326,466.277,352.327,466.246,352.327z M463.065,336.759c-0.422,0-0.814-0.269-0.951-0.691
						c-0.233-0.72-0.479-1.435-0.735-2.146c-0.627-1.733-1.336-3.473-2.104-5.168c-0.229-0.503-0.006-1.096,0.497-1.323
						c0.504-0.232,1.096-0.006,1.323,0.497c0.792,1.742,1.52,3.53,2.165,5.314c0.265,0.732,0.518,1.469,0.757,2.208
						c0.17,0.525-0.117,1.09-0.643,1.26C463.271,336.744,463.166,336.759,463.065,336.759z M456.505,322.287
						c-0.342,0-0.675-0.175-0.861-0.49c-1.323-2.235-2.788-4.433-4.354-6.533c-0.33-0.443-0.238-1.069,0.204-1.399
						c0.443-0.331,1.069-0.239,1.399,0.204c1.607,2.156,3.111,4.414,4.471,6.709c0.281,0.476,0.124,1.089-0.351,1.37
						C456.854,322.242,456.678,322.287,456.505,322.287z M447.012,309.542c-0.27,0-0.538-0.108-0.735-0.322
						c-1.768-1.919-3.655-3.769-5.611-5.495c-0.414-0.366-0.453-0.998-0.088-1.412c0.367-0.414,0.999-0.452,1.412-0.088
						c2.007,1.773,3.944,3.671,5.758,5.64c0.374,0.406,0.349,1.039-0.058,1.413C447.497,309.454,447.254,309.542,447.012,309.542z"
						/>
				</g>
				<g>
					<path style="fill:#FC7E7E;" d="M276.401,432.287c-0.222,0-0.444-0.073-0.63-0.225c-1.063-0.864-2.089-1.788-3.051-2.745
						c-0.392-0.39-0.394-1.022-0.004-1.414c0.391-0.391,1.022-0.394,1.414-0.004c0.915,0.91,1.892,1.789,2.902,2.612
						c0.429,0.349,0.493,0.979,0.145,1.406C276.98,432.161,276.692,432.287,276.401,432.287z"/>
				</g>
			</g>
			<g>
				<g>
					<path style="fill:#FC7E7E;" d="M330.591,80.734c-0.225,0-0.45-0.075-0.637-0.23c-0.426-0.353-0.484-0.983-0.132-1.408
						c0.87-1.051,1.834-2.057,2.863-2.99c0.408-0.37,1.042-0.34,1.413,0.07c0.371,0.409,0.34,1.042-0.069,1.413
						c-0.96,0.869-1.857,1.806-2.668,2.784C331.164,80.611,330.879,80.734,330.591,80.734z"/>
				</g>
				<g>
					<path style="fill:#FC7E7E;" d="M432.453,141.814c-0.349,0-0.687-0.182-0.871-0.506c-1.244-2.193-2.791-4.193-4.598-5.943
						c-0.396-0.385-0.406-1.018-0.021-1.414c0.383-0.398,1.018-0.406,1.414-0.022c1.942,1.883,3.606,4.034,4.945,6.392
						c0.272,0.48,0.104,1.091-0.377,1.363C432.79,141.772,432.62,141.814,432.453,141.814z M421.345,131.108
						c-0.151,0-0.306-0.035-0.451-0.108c-0.852-0.432-1.733-0.813-2.62-1.132c-1.333-0.48-2.816-0.89-4.532-1.252
						c-0.541-0.114-0.887-0.645-0.772-1.185s0.645-0.887,1.185-0.772c1.808,0.381,3.377,0.816,4.798,1.328
						c0.964,0.348,1.922,0.761,2.847,1.229c0.492,0.25,0.689,0.852,0.439,1.344C422.062,130.908,421.71,131.108,421.345,131.108z
						 M406.228,127.373c-0.049,0-0.098-0.003-0.147-0.011c-2.413-0.358-5.204-0.803-7.8-1.553c-0.53-0.153-0.837-0.708-0.684-1.238
						c0.153-0.53,0.706-0.834,1.238-0.684c2.478,0.715,5.19,1.147,7.538,1.496c0.547,0.081,0.924,0.59,0.843,1.136
						C407.142,127.016,406.715,127.373,406.228,127.373z M391.564,122.462c-0.215,0-0.432-0.069-0.614-0.211
						c-0.623-0.486-1.217-1.022-1.765-1.592c-1.35-1.405-2.422-3.005-3.28-4.891c-0.229-0.502-0.007-1.095,0.496-1.324
						c0.504-0.228,1.096-0.006,1.324,0.496c0.763,1.676,1.713,3.094,2.902,4.333c0.481,0.501,1.004,0.973,1.553,1.4
						c0.436,0.34,0.513,0.968,0.173,1.404C392.156,122.33,391.861,122.462,391.564,122.462z M384.76,108.833
						c-0.486,0-0.913-0.355-0.988-0.851c-0.313-2.075-0.509-4.237-0.698-6.329l-0.139-1.507c-0.051-0.55,0.353-1.038,0.902-1.089
						c0.555-0.054,1.038,0.352,1.09,0.902l0.139,1.514c0.187,2.063,0.38,4.195,0.685,6.211c0.082,0.546-0.294,1.055-0.84,1.138
						C384.86,108.829,384.81,108.833,384.76,108.833z M382.828,93.312c-0.458,0-0.871-0.316-0.975-0.782
						c-0.051-0.224-0.104-0.447-0.158-0.668c-0.544-2.19-1.376-4.338-2.473-6.385c-0.261-0.487-0.077-1.093,0.409-1.354
						c0.488-0.261,1.093-0.077,1.354,0.409c1.174,2.192,2.065,4.496,2.65,6.848c0.059,0.237,0.115,0.475,0.168,0.713
						c0.121,0.539-0.219,1.074-0.758,1.194C382.974,93.304,382.901,93.312,382.828,93.312z M375.571,79.655
						c-0.269,0-0.537-0.108-0.734-0.321c-1.725-1.864-3.669-3.501-5.778-4.866c-0.464-0.3-0.597-0.919-0.297-1.383
						c0.301-0.464,0.92-0.595,1.383-0.297c2.25,1.456,4.322,3.201,6.161,5.187c0.375,0.405,0.351,1.038-0.056,1.413
						C376.058,79.567,375.815,79.655,375.571,79.655z M339.777,73.416c-0.363,0-0.713-0.198-0.89-0.542
						c-0.253-0.491-0.06-1.094,0.431-1.347c2.391-1.23,4.935-2.161,7.563-2.765c0.535-0.122,1.075,0.212,1.198,0.75
						c0.124,0.538-0.212,1.075-0.751,1.199c-2.465,0.567-4.852,1.439-7.094,2.594C340.088,73.38,339.932,73.416,339.777,73.416z
						 M362.556,71.283c-0.101,0-0.203-0.016-0.305-0.048c-0.719-0.23-1.455-0.432-2.188-0.599c-1.693-0.387-3.452-0.611-5.225-0.667
						c-0.553-0.018-0.985-0.479-0.968-1.031c0.017-0.552,0.483-0.985,1.03-0.968c1.901,0.06,3.788,0.301,5.607,0.716
						c0.788,0.18,1.58,0.396,2.353,0.644c0.526,0.168,0.816,0.731,0.647,1.257C363.372,71.012,362.98,71.283,362.556,71.283z"/>
				</g>
				<g>
					<path style="fill:#FC7E7E;" d="M435.817,153.084c-0.527,0-0.969-0.413-0.998-0.947c-0.067-1.266-0.242-2.543-0.519-3.797
						c-0.119-0.539,0.222-1.073,0.761-1.192c0.544-0.12,1.072,0.222,1.192,0.761c0.3,1.36,0.489,2.747,0.563,4.122
						c0.029,0.551-0.395,1.022-0.945,1.052C435.853,153.084,435.834,153.084,435.817,153.084z"/>
				</g>
			</g>
		</g>
	</g>
	<g>
		<g>
			<g id="XMLID_1_">
				<g>
					<path style="fill:#FFA4A4;" d="M287.89,342.861c-0.43,0.34-0.87,0.66-1.33,0.95c-4.01,2.56-9.02,3.17-13.62,2.14
						c-9.73-2.19-16.02-11.34-17.34-20.82c-0.18-1.32-0.26-2.65-0.28-3.98c7.39-1.02,15.05,0.74,21.16,5.05
						c2.89,2.03,5.37,4.58,7.39,7.48c0.96,1.39,1.79,2.88,2.5,4.42C287.05,339.571,287.82,341.211,287.89,342.861z"/>
					<path style="fill:#FFA4A4;" d="M339.14,139.831c-6.61,8.1-11.67,17.38-14.8,27.38c-6.05-3.94-12.46-7.34-19.17-10.13
						C314.65,148.311,326.89,143.531,339.14,139.831z"/>
					<path style="fill:#FFA4A4;" d="M393.57,283.291c0.15,4.12-0.49,8.37-2.7,11.92c-1.92,3.08-4.74,5.5-7.86,7.3
						c-3.96,2.28-8.32,3.76-12.81,4.75c-3.78,0.84-7.65,1.34-11.44,1.66c-4.88,0.43-9.79,0.49-14.69,0.37
						c-4.65-0.11-9.31-0.35-13.92-1.03c-4.21-0.62-8.53-1.56-12.33-3.53c-3.71-1.92-6.5-4.97-8.17-8.78
						c-3.54-8.04-1.61-17.29,1.53-25.12c5.49-13.66,16.29-25.1,29.57-31.44c1.68-0.8,3.41-1.52,5.16-2.16c0,0,0.01,0,0.02-0.01
						c6.89-1.76,14.26,1.34,20.17,5.09c2.52,1.6,5.02,3.28,7.4,5.1c4.62,3.5,8.84,7.49,12.14,12.33
						C390.33,266.591,393.28,274.971,393.57,283.291z M372.06,277.211c3.52-0.31,6.01-4.63,5.56-9.63c-0.45-5.01-3.66-8.82-7.18-8.5
						c-3.52,0.31-6,4.63-5.56,9.64C365.33,273.721,368.55,277.531,372.06,277.211z M327.55,281.201c3.52-0.32,6.01-4.63,5.56-9.64
						c-0.45-5.01-3.66-8.81-7.18-8.5c-3.52,0.32-6,4.63-5.56,9.64C320.82,277.711,324.04,281.511,327.55,281.201z"/>
					<path style="fill:#3C4D68;" d="M154.05,389.361c0.17,2.78,0.29,5.58,0.35,8.37c-1.41,1.55-2.83,3.09-4.28,4.61
						c-11.47-6.49-23.15-13.26-32.13-23.03c3.89-0.46,7.88-0.24,11.76,0.06c4.52,0.35,8.99,1.03,13.41,1.99
						c-0.11,3.05,0.02,6.1,0.4,9.13c0.04,0.31,0.21,0.57,0.45,0.76c0.36,0.43,0.92,0.67,1.5,0.52
						C148.37,391.021,151.22,390.211,154.05,389.361z"/>
					<path style="fill:#3C4D68;" d="M190.81,386.321c-2.57,6.86-4.95,13.8-7.14,20.78c-8.53-2.45-16.91-5.56-24.39-10.36
						c4.63-5.31,8.96-10.87,12.99-16.64C178.23,382.671,184.43,384.751,190.81,386.321z"/>
					<path style="fill:#3C4D68;" d="M312.16,400.721c-5.24,2.49-10.85,3.99-16.49,5.28c-5.94,1.36-12.06,3-18.19,2.55
						c-1.21-7.77-2.17-15.59-2.86-23.42c8.1-1.03,15.91-2.87,23.38-5.43c0.03,0.1,0.08,0.2,0.15,0.31
						C302.62,387.051,307.29,393.961,312.16,400.721z"/>
					<path style="fill:#3C4D68;" d="M350.73,376.631c0.94,1.87,1.86,3.76,2.75,5.66c-10.2,8.34-20.74,16.78-33.09,21.62
						c0.97-3.8,2.62-7.44,4.31-10.95c1.96-4.08,4.21-8,6.71-11.78c2.8,1.21,5.69,2.19,8.65,2.93c0.31,0.08,0.61,0.01,0.88-0.14
						c0.52-0.18,0.95-0.61,1.02-1.21c0.34-2.94,0.61-5.88,0.84-8.83C345.46,374.781,348.1,375.671,350.73,376.631z"/>
					<path style="fill:#3C4D68;" d="M391.15,263.171c4.01,7.76,6.62,17.52,5.02,26.26c-1.54,8.36-7.67,14.12-15.2,17.47
						c-3.37,1.5-6.91,2.59-10.53,3.38c0.1-0.24,0.19-0.47,0.28-0.71l-0.52-2.31c4.49-0.99,8.85-2.47,12.81-4.75
						c3.12-1.8,5.94-4.22,7.86-7.3c2.21-3.55,2.85-7.8,2.7-11.92c-0.29-8.32-3.24-16.7-7.93-23.55c-3.3-4.84-7.52-8.83-12.14-12.33
						l0.45-0.59c1.12,0.69,2.22,1.42,3.27,2.21c-0.14-0.95-0.3-1.9-0.46-2.84C382.61,250.891,387.64,256.351,391.15,263.171z"/>
					<path style="fill:#3C4D68;" d="M377.62,267.581c0.45,5-2.04,9.32-5.56,9.63c-3.51,0.32-6.73-3.49-7.18-8.49
						c-0.44-5.01,2.04-9.33,5.56-9.64C373.96,258.761,377.17,262.571,377.62,267.581z"/>
					<path style="fill:#3C4D68;" d="M376.76,246.191c0.16,0.94,0.32,1.89,0.46,2.84c-1.05-0.79-2.15-1.52-3.27-2.21
						c-0.05-0.06-0.1-0.13-0.16-0.19c-0.19-1.05-0.39-2.1-0.61-3.14C374.4,244.361,375.6,245.261,376.76,246.191z"/>
					<path style="fill:#3C4D68;" d="M376.76,246.191c-1.16-0.93-2.36-1.83-3.58-2.7c-4.5-21.81-15.05-41.21-29.7-56.53l0.25-0.24
						c0.67,0.86,2.2,1.01,2.57-0.32c0.06-0.21,0.12-0.43,0.17-0.64C361.8,202.121,372.63,222.881,376.76,246.191z"/>
					<path style="fill:#3C4D68;" d="M373.79,246.631c0.06,0.06,0.11,0.13,0.16,0.19l-0.45,0.59c-2.38-1.82-4.88-3.5-7.4-5.1
						c-5.91-3.75-13.28-6.85-20.17-5.09c-0.01,0.01-0.02,0.01-0.02,0.01c-1.75,0.64-3.48,1.36-5.16,2.16
						c-13.28,6.34-24.08,17.78-29.57,31.44c-3.14,7.83-5.07,17.08-1.53,25.12c1.67,3.81,4.46,6.86,8.17,8.78
						c3.8,1.97,8.12,2.91,12.33,3.53c4.61,0.68,9.27,0.92,13.92,1.03c4.9,0.12,9.81,0.06,14.69-0.37c3.79-0.32,7.66-0.82,11.44-1.66
						l0.52,2.31c-1.15,0.28-2.32,0.5-3.49,0.7c-0.09,0.23-0.18,0.45-0.28,0.68c-4.69,0.79-9.47,1.14-14.14,1.3
						c-9.94,0.34-20.38,0.16-30.04-2.46c-4.22-1.15-8.29-2.99-11.44-6.08c-3.09-3.02-5.04-7.1-5.95-11.29
						c-1.94-8.87,0.78-18.39,4.65-26.37c6.35-13.1,17.29-23.85,30.54-29.85c0.07-0.05,0.13-0.11,0.22-0.15
						c1.94-1.1,4.09-1.82,6.3-2.14c9.44-1.35,17.91,3.83,25.31,9.02c0.26,0.18,0.52,0.37,0.78,0.56
						C373.4,244.531,373.6,245.581,373.79,246.631z"/>
					<path style="fill:#FFFFFF;" d="M373.18,243.491c-0.26-0.19-0.52-0.38-0.78-0.56c-7.4-5.19-15.87-10.37-25.31-9.02
						c-2.21,0.32-4.36,1.04-6.3,2.14c-0.09,0.04-0.15,0.1-0.22,0.15c-13.25,6-24.19,16.75-30.54,29.85
						c-3.87,7.98-6.59,17.5-4.65,26.37c0.91,4.19,2.86,8.27,5.95,11.29c3.15,3.09,7.22,4.93,11.44,6.08
						c9.66,2.62,20.1,2.8,30.04,2.46c4.67-0.16,9.45-0.51,14.14-1.3c-6.7,16.31-17.03,30.86-30.07,42.55
						c0.35,0.36,0.69,0.73,1.02,1.09v0.01c0.05,0.14,0.12,0.27,0.21,0.41c3.85,5.73,7.38,11.65,10.61,17.74
						c-2.15-0.75-4.31-1.47-6.48-2.15c-0.78-0.24-1.63,0.01-1.97,0.81c-0.03,0.08-0.06,0.17-0.08,0.27
						c-0.15,0.19-0.25,0.42-0.27,0.69c-0.2,2.81-0.47,5.61-0.77,8.41c-2.59-0.74-5.2-1.7-7.67-2.83c-0.61-0.28-1.41-0.04-1.8,0.5
						c-0.09,0.08-0.17,0.18-0.25,0.29c-2.8,4.17-5.32,8.53-7.5,13.06c-1.73,3.61-3.37,7.34-4.4,11.22c-0.71-0.96-1.41-1.92-2.1-2.88
						c-5.1-7.04-9.99-14.23-14.65-21.57c-0.04-0.06-0.07-0.11-0.12-0.16c0-0.01,0-0.01-0.01-0.02c-0.39-0.79-0.78-1.59-1.16-2.39
						c-8.39,3.08-17.26,5.24-26.5,6.32c-1.03,0.12-2.07,0.23-3.11,0.32l-40.47,3.62c-12.53,1.12-24.78,0.19-36.42-2.5
						c-7.57-1.76-14.87-4.26-21.83-7.43c-0.19,0.46-0.4,0.9-0.64,1.34c-0.19,0.09-0.37,0.24-0.53,0.47
						c-3.95,5.66-8.19,11.1-12.7,16.32c-0.08-2.28-0.19-4.56-0.35-6.83c-0.05-0.81-0.59-1.51-1.45-1.54c-0.1,0-0.19,0.01-0.29,0.03
						c-0.23-0.08-0.48-0.09-0.74-0.01c-2.69,0.83-5.4,1.59-8.12,2.32c-0.25-2.68-0.3-5.46-0.14-8.17c0.04-0.67-0.47-1.33-1.12-1.5
						c-0.1-0.05-0.22-0.09-0.35-0.12c-4.9-1.11-9.88-1.88-14.89-2.27c-3.99-0.31-8.06-0.49-12.05-0.04
						c4.97-7.84,10.19-15.51,15.67-23.01l0.01,0.01c0.06-0.09,0.13-0.19,0.19-0.28c0.29-0.4,0.58-0.79,0.87-1.19
						c0.11-0.15,0.19-0.29,0.24-0.45c0,0,0-0.01,0-0.02c0.14-0.2,0.28-0.4,0.41-0.6c-0.19-0.2-0.38-0.4-0.57-0.61
						c-0.13-0.23-0.32-0.42-0.53-0.56c-16.96-18.21-28.24-41.96-30.62-68.62c-1.63-18.23,1.06-35.87,7.24-51.9
						c15.41-40.01,52.5-69.98,98.02-74.06l40.46-3.62c18.71-1.67,36.79,1.21,53.15,7.73c7.8,3.11,15.2,7.05,22.09,11.71
						c6.91,4.67,13.3,10.07,19.06,16.1C358.13,202.281,368.68,221.681,373.18,243.491z M336.19,229.551
						c3.75-0.33,6.31-5.87,5.73-12.37c-0.58-6.49-4.09-11.48-7.84-11.15c-3.74,0.34-6.31,5.87-5.73,12.37
						C328.93,224.891,332.44,229.891,336.19,229.551z M333.19,190.631c3.21,2.16,6.64-2.76,3.43-4.92
						c-4.96-3.33-10.88-4.53-16.73-3.26c-3.77,0.81-2.73,6.72,1.05,5.91C325.29,187.421,329.48,188.151,333.19,190.631z
						 M334.24,359.651c-0.62-0.78-1.25-1.55-1.89-2.33c-8.5,6.88-18.02,12.6-28.32,16.89c0.42,0.91,0.86,1.81,1.32,2.7
						C315.86,372.521,325.56,366.671,334.24,359.651z M296.08,337.381c2.71-5.23,3.57-11.21,3.43-17.05
						c-0.15-6.18-1.04-12.54-3.74-18.16c-2.56-5.35-6.93-10.02-12.64-11.95c-5.59-1.9-11.82-1.22-17.06,1.38
						c-0.26,0.02-0.52,0.1-0.77,0.27c-4.45,3.02-7.5,7.61-9.57,12.5c-2.32,5.5-3.59,11.57-3.39,17.54
						c0.37,10.92,6.29,22.1,16.94,26.06c5,1.86,10.65,1.98,15.64,0.02c1.8-0.7,3.44-1.69,4.93-2.88c0.38-0.1,0.71-0.36,0.89-0.77
						C292.92,342.381,294.73,339.981,296.08,337.381z M279.23,243.371c3.75-0.34,6.31-5.88,5.73-12.37
						c-0.58-6.5-4.09-11.49-7.83-11.16c-3.75,0.34-6.32,5.88-5.73,12.37C271.98,238.711,275.49,243.701,279.23,243.371z
						 M276.72,195.261c3.82-0.57,2.77-6.47-1.05-5.9c-7.36,1.09-13.78,5.16-17.94,11.32c-2.17,3.2,2.75,6.64,4.92,3.43
						C265.97,199.201,270.86,196.141,276.72,195.261z M260.44,163.471c1.21-0.09,1.6-1.47,1.02-2.39c-0.95-1.53-2.05-2.93-3.29-4.21
						c-0.55-0.57-36.73,0.21-53.92,2.61c-4.9,0.69-16.14,2.31-16.45,3.19c-0.64,1.81-1.29,3.62-1.93,5.42
						c-0.35,1,0.34,2.32,1.55,2.1c9.31-1.62,18.69-2.46,28.1-3.2c9.52-0.74,19.03-1.49,28.54-2.24
						C249.51,164.331,254.97,163.901,260.44,163.471z M255.03,182.781c1.63,1.02,3.36-1.44,1.71-2.46
						c-13.43-8.31-29.87-11.26-45.34-8.03c-0.89,0.19-1.23,0.94-1.16,1.65c-0.32,0.46-0.4,1.13-0.14,1.67
						c-3.45,15.14-0.85,31.43,7.47,44.6c0.09,0.15,0.21,0.27,0.33,0.38c0.22,1.01,1.43,1.8,2.4,0.89
						c7.41-6.95,15.25-13.42,23.48-19.38c0.11-0.08,0.2-0.17,0.27-0.26c0.7-0.31,1.15-1.06,0.67-1.91
						c-6.6-11.59-18.34-19.37-30.15-25.14C228.48,172.551,243.02,175.351,255.03,182.781z M232.14,292.531
						c9.99-0.89,17.36-9.72,16.47-19.71c-0.89-9.99-9.72-17.36-19.71-16.47c-9.99,0.9-17.36,9.72-16.47,19.71
						C213.32,286.051,222.15,293.421,232.14,292.531z M163.68,375.991c0.62-0.8,1.24-1.61,1.85-2.42
						c-9.51-4.98-18.29-11.23-26.07-18.56c-0.63,0.78-1.28,1.54-1.95,2.28C145.34,364.651,154.14,370.951,163.68,375.991z"/>
					<path style="fill:#3C4D68;" d="M370.72,309.571c-0.09,0.24-0.18,0.47-0.28,0.71c-1.16,0.26-2.32,0.48-3.49,0.67
						c0.1-0.23,0.19-0.45,0.28-0.68C368.4,310.071,369.57,309.851,370.72,309.571z"/>
					<path style="fill:#3C4D68;" d="M366.95,310.951c1.17-0.19,2.33-0.41,3.49-0.67c-6.5,16.6-16.64,31.48-29.52,43.56
						c-0.06-0.09-0.12-0.19-0.18-0.28c-0.98-1.45-3.25-0.38-2.84,1.03c-0.33-0.36-0.67-0.73-1.02-1.09
						C349.92,341.811,360.25,327.261,366.95,310.951z"/>
					<path style="fill:#3C4D68;" d="M356.54,381.761c0.5,0.54,0.63,1.37-0.11,1.97c-11.61,9.52-23.54,19.16-37.94,24.08
						c-0.79,0.26-1.37-0.12-1.63-0.69c-0.03-0.04-0.06-0.06-0.09-0.1c-0.95-1.27-1.89-2.55-2.83-3.84c0.16-0.07,0.32-0.15,0.48-0.23
						c1.03-0.52,0.98-1.7,0.41-2.37l0.6-0.44c0.69,0.96,1.39,1.92,2.1,2.88c1.03-3.88,2.67-7.61,4.4-11.22
						c2.18-4.53,4.7-8.89,7.5-13.06c0.08-0.11,0.16-0.21,0.25-0.29c0.39-0.54,1.19-0.78,1.8-0.5c2.47,1.13,5.08,2.09,7.67,2.83
						c0.3-2.8,0.57-5.6,0.77-8.41c0.02-0.27,0.12-0.5,0.27-0.69c0.02-0.1,0.05-0.19,0.08-0.27c0.34-0.8,1.19-1.05,1.97-0.81
						c2.17,0.68,4.33,1.4,6.48,2.15c-3.23-6.09-6.76-12.01-10.61-17.74c-0.09-0.14-0.16-0.27-0.21-0.41
						c0.34,0.37,0.67,0.74,0.99,1.11c0.68-0.61,1.36-1.23,2.03-1.87C346.87,362.721,352.09,372.051,356.54,381.761z M353.48,382.291
						c-0.89-1.9-1.81-3.79-2.75-5.66c-2.63-0.96-5.27-1.85-7.93-2.7c-0.23,2.95-0.5,5.89-0.84,8.83c-0.07,0.6-0.5,1.03-1.02,1.21
						c-0.27,0.15-0.57,0.22-0.88,0.14c-2.96-0.74-5.85-1.72-8.65-2.93c-2.5,3.78-4.75,7.7-6.71,11.78
						c-1.69,3.51-3.34,7.15-4.31,10.95C332.74,399.071,343.28,390.631,353.48,382.291z"/>
					<path style="fill:#3C4D68;" d="M344.32,138.191c5.58,15.22,6.35,31.92,2.15,47.57c-0.8-0.86-1.61-1.71-2.44-2.53
						c3.42-13.93,2.72-28.76-1.93-42.32c-6.91,8.19-12.06,17.79-15.15,28.04c-0.86-0.59-1.73-1.18-2.61-1.74
						c3.13-10,8.19-19.28,14.8-27.38c-12.25,3.7-24.49,8.48-33.97,17.25c-1.01-0.43-2.02-0.84-3.04-1.23
						c0.03-0.04,0.06-0.07,0.09-0.1c10.83-10.57,25.43-15.73,39.67-19.84c0.55-0.16,0.97-0.01,1.26,0.29
						c0.37,0.06,0.73,0.24,0.94,0.5C344.48,137.171,344.51,137.701,344.32,138.191z"/>
					<path style="fill:#3C4D68;" d="M346.47,185.761c-0.05,0.21-0.11,0.43-0.17,0.64c-0.37,1.33-1.9,1.18-2.57,0.32
						c-0.27-0.35-0.4-0.82-0.25-1.35c0.2-0.71,0.38-1.42,0.55-2.14C344.86,184.051,345.67,184.901,346.47,185.761z"/>
					<path style="fill:#3C4D68;" d="M342.1,140.911c4.65,13.56,5.35,28.39,1.93,42.32c-5.24-5.28-10.96-10.06-17.08-14.28
						C330.04,158.701,335.19,149.101,342.1,140.911z"/>
					<path style="fill:#3C4D68;" d="M344.03,183.231c-0.17,0.72-0.35,1.43-0.55,2.14c-0.15,0.53-0.02,1,0.25,1.35l-0.25,0.24
						c-5.76-6.03-12.15-11.43-19.06-16.1l0.12-0.18c0.74,0.45,1.8,0.34,2.11-0.73c0.1-0.33,0.19-0.67,0.3-1
						C333.07,173.171,338.79,177.951,344.03,183.231z"/>
					<path style="fill:#3C4D68;" d="M341.92,217.181c0.58,6.5-1.98,12.04-5.73,12.37c-3.75,0.34-7.26-4.66-7.84-11.15
						c-0.58-6.5,1.99-12.03,5.73-12.37C337.83,205.701,341.34,210.691,341.92,217.181z"/>
					<path style="fill:#3C4D68;" d="M340.74,353.561c0.06,0.09,0.12,0.19,0.18,0.28c-0.67,0.64-1.35,1.26-2.03,1.87
						c-0.32-0.37-0.65-0.74-0.99-1.11v-0.01C337.49,353.181,339.76,352.111,340.74,353.561z"/>
					<path style="fill:#3C4D68;" d="M336.62,185.711c3.21,2.16-0.22,7.08-3.43,4.92c-3.71-2.48-7.9-3.21-12.25-2.27
						c-3.78,0.81-4.82-5.1-1.05-5.91C325.74,181.181,331.66,182.381,336.62,185.711z"/>
					<path style="fill:#3C4D68;" d="M332.35,357.321c0.64,0.78,1.27,1.55,1.89,2.33c-8.68,7.02-18.38,12.87-28.89,17.26
						c-0.46-0.89-0.9-1.79-1.32-2.7C314.33,369.921,323.85,364.201,332.35,357.321z"/>
					<path style="fill:#3C4D68;" d="M333.11,271.561c0.45,5.01-2.04,9.32-5.56,9.64c-3.51,0.31-6.73-3.49-7.18-8.5
						c-0.44-5.01,2.04-9.32,5.56-9.64C329.45,262.751,332.66,266.551,333.11,271.561z"/>
					<path style="fill:#3C4D68;" d="M326.95,168.951c-0.11,0.33-0.2,0.67-0.3,1c-0.31,1.07-1.37,1.18-2.11,0.73
						c-0.55-0.33-0.94-0.98-0.71-1.76c0.17-0.57,0.34-1.14,0.51-1.71C325.22,167.771,326.09,168.361,326.95,168.951z"/>
					<path style="fill:#3C4D68;" d="M324.54,170.681l-0.12,0.18c-6.89-4.66-14.29-8.6-22.09-11.71l0.34-0.84
						c0.46,0.22,1.01,0.2,1.5-0.28c0.33-0.32,0.66-0.64,1-0.95c6.71,2.79,13.12,6.19,19.17,10.13c-0.17,0.57-0.34,1.14-0.51,1.71
						C323.6,169.701,323.99,170.351,324.54,170.681z"/>
					<path style="fill:#3C4D68;" d="M315.43,400.141l-0.6,0.44c-0.39-0.45-1.01-0.68-1.7-0.33c-0.32,0.16-0.65,0.32-0.97,0.47
						c-4.87-6.76-9.54-13.67-14.01-20.71c-0.07-0.11-0.12-0.21-0.15-0.31c0.94-0.32,1.88-0.65,2.81-0.99c-0.05-0.1-0.1-0.2-0.15-0.3
						c0.05,0.05,0.08,0.1,0.12,0.16C305.44,385.911,310.33,393.101,315.43,400.141z"/>
					<path style="fill:#3C4D68;" d="M314.83,400.581c0.57,0.67,0.62,1.85-0.41,2.37c-0.16,0.08-0.32,0.16-0.48,0.23
						c-0.6-0.81-1.19-1.63-1.78-2.46c0.32-0.15,0.65-0.31,0.97-0.47C313.82,399.901,314.44,400.131,314.83,400.581z"/>
					<path style="fill:#3C4D68;" d="M312.16,400.721c0.59,0.83,1.18,1.65,1.78,2.46c-5.62,2.75-11.67,4.39-17.74,5.78
						c-6.42,1.47-13.01,3.19-19.64,2.54c-0.62-0.06-1.01-0.42-1.19-0.87c-0.38-0.17-0.69-0.51-0.77-1.06
						c-1.25-8-2.23-16.03-2.95-24.1c0.99-0.1,1.98-0.21,2.97-0.34c0.69,7.83,1.65,15.65,2.86,23.42c6.13,0.45,12.25-1.19,18.19-2.55
						C301.31,404.711,306.92,403.211,312.16,400.721z"/>
					<path style="fill:#3C4D68;" d="M305.17,157.081c-0.34,0.31-0.67,0.63-1,0.95c-0.49,0.48-1.04,0.5-1.5,0.28
						c-0.81-0.4-1.3-1.6-0.54-2.46C303.15,156.241,304.16,156.651,305.17,157.081z"/>
					<path style="fill:#3C4D68;" d="M302.67,158.311l-0.34,0.84c-16.36-6.52-34.44-9.4-53.15-7.73l-40.46,3.62
						c-45.52,4.08-82.61,34.05-98.02,74.06l-0.03-0.01c0.07-0.19,0.1-0.41,0.09-0.64c-0.11-1.67-0.46-3.32-1.02-4.9
						c16.78-38.79,53.74-67.47,98.71-71.5l40.46-3.62c18.7-1.67,36.78,1.09,53.22,7.42
						C301.37,156.711,301.86,157.911,302.67,158.311z"/>
					<path style="fill:#3C4D68;" d="M300.66,378.411c0.05,0.1,0.1,0.2,0.15,0.3c-0.93,0.34-1.87,0.67-2.81,0.99
						c-0.52-1.43,1.63-2.56,2.65-1.31C300.66,378.401,300.66,378.401,300.66,378.411z"/>
					<path style="fill:#3C4D68;" d="M299.49,376.001c0.38,0.8,0.77,1.6,1.16,2.39c-1.02-1.25-3.17-0.12-2.65,1.31
						c-7.47,2.56-15.28,4.4-23.38,5.43c-0.02-0.13-0.03-0.25-0.04-0.38c-0.08-0.89-0.76-1.25-1.45-1.19l-0.14-1.24
						C282.23,381.241,291.1,379.081,299.49,376.001z"/>
					<path style="fill:#3C4D68;" d="M299.51,320.331c0.14,5.84-0.72,11.82-3.43,17.05c-1.35,2.6-3.16,5-5.34,6.96
						c-0.18,0.41-0.51,0.67-0.89,0.77c-1.49,1.19-3.13,2.18-4.93,2.88c-4.99,1.96-10.64,1.84-15.64-0.02
						c-10.65-3.96-16.57-15.14-16.94-26.06c-0.2-5.97,1.07-12.04,3.39-17.54c2.07-4.89,5.12-9.48,9.57-12.5
						c0.25-0.17,0.51-0.25,0.77-0.27c5.24-2.6,11.47-3.28,17.06-1.38c5.71,1.93,10.08,6.6,12.64,11.95
						C298.47,307.791,299.36,314.151,299.51,320.331z M294.8,332.811c1.8-5.15,2-10.76,1.52-16.16c-0.49-5.47-1.68-11.04-4.66-15.74
						c-2.52-3.97-6.28-7.12-10.89-8.27c-4.8-1.2-9.92-0.26-14.22,2.08c-0.04,0.03-0.09,0.04-0.13,0.06
						c-4.07,3.08-6.75,7.52-8.52,12.27c-1.32,3.54-2.2,7.29-2.49,11.07c8.1-0.98,16.47,1.04,23.1,5.85
						c3.17,2.29,5.92,5.16,8.08,8.41c1.49,2.26,3.19,5.1,3.93,7.97C292.42,338.151,293.85,335.531,294.8,332.811z M286.56,343.811
						c0.46-0.29,0.9-0.61,1.33-0.95c-0.07-1.65-0.84-3.29-1.52-4.76c-0.71-1.54-1.54-3.03-2.5-4.42c-2.02-2.9-4.5-5.45-7.39-7.48
						c-6.11-4.31-13.77-6.07-21.16-5.05c0.02,1.33,0.1,2.66,0.28,3.98c1.32,9.48,7.61,18.63,17.34,20.82
						C277.54,346.981,282.55,346.371,286.56,343.811z"/>
					<path style="fill:#3C4D68;" d="M296.32,316.651c0.48,5.4,0.28,11.01-1.52,16.16c-0.95,2.72-2.38,5.34-4.28,7.54
						c-0.74-2.87-2.44-5.71-3.93-7.97c-2.16-3.25-4.91-6.12-8.08-8.41c-6.63-4.81-15-6.83-23.1-5.85c0.29-3.78,1.17-7.53,2.49-11.07
						c1.77-4.75,4.45-9.19,8.52-12.27c0.04-0.02,0.09-0.03,0.13-0.06c4.3-2.34,9.42-3.28,14.22-2.08c4.61,1.15,8.37,4.3,10.89,8.27
						C294.64,305.611,295.83,311.181,296.32,316.651z"/>
					<path style="fill:#3C4D68;" d="M284.96,231.001c0.58,6.49-1.98,12.03-5.73,12.37c-3.74,0.33-7.25-4.66-7.83-11.16
						c-0.59-6.49,1.98-12.03,5.73-12.37C280.87,219.511,284.38,224.501,284.96,231.001z"/>
					<path style="fill:#3C4D68;" d="M275.67,189.361c3.82-0.57,4.87,5.33,1.05,5.9c-5.86,0.88-10.75,3.94-14.07,8.85
						c-2.17,3.21-7.09-0.23-4.92-3.43C261.89,194.521,268.31,190.451,275.67,189.361z"/>
					<path style="fill:#3C4D68;" d="M274.58,384.751c0.01,0.13,0.02,0.25,0.04,0.38c-0.99,0.13-1.98,0.24-2.97,0.34
						c-0.01-0.06-0.01-0.13-0.02-0.19c-0.09-1.02,0.71-1.65,1.5-1.72C273.82,383.501,274.5,383.861,274.58,384.751z"/>
					<path style="fill:#3C4D68;" d="M272.99,382.321l0.14,1.24c-0.79,0.07-1.59,0.7-1.5,1.72c0.01,0.06,0.01,0.13,0.02,0.19
						c-0.5,0.06-1,0.11-1.5,0.15l-40.47,3.63c-12.33,1.1-24.4,0.27-35.91-2.24c0.09-0.26,0.19-0.53,0.29-0.79
						c0.39-1.03-0.36-1.81-1.19-1.95l0.12-0.51c11.64,2.69,23.89,3.62,36.42,2.5l40.47-3.62
						C270.92,382.551,271.96,382.441,272.99,382.321z"/>
					<path style="fill:#3C4D68;" d="M261.46,161.081c0.58,0.92,0.19,2.3-1.02,2.39c-5.47,0.43-10.93,0.86-16.38,1.28
						c-9.51,0.75-19.02,1.5-28.54,2.24c-9.41,0.74-18.79,1.58-28.1,3.2c-1.21,0.22-1.9-1.1-1.55-2.1c0.64-1.8,1.29-3.61,1.93-5.42
						c0.31-0.88,11.55-2.5,16.45-3.19c17.19-2.4,53.37-3.18,53.92-2.61C259.41,158.151,260.51,159.551,261.46,161.081z"/>
					<path style="fill:#3C4D68;" d="M256.74,180.321c1.65,1.02-0.08,3.48-1.71,2.46c-12.01-7.43-26.55-10.23-40.46-7.99
						c11.81,5.77,23.55,13.55,30.15,25.14c0.48,0.85,0.03,1.6-0.67,1.91c-0.07,0.09-0.16,0.18-0.27,0.26
						c-8.23,5.96-16.07,12.43-23.48,19.38c-0.97,0.91-2.18,0.12-2.4-0.89c-0.12-0.11-0.24-0.23-0.33-0.38
						c-8.32-13.17-10.92-29.46-7.47-44.6c-0.26-0.54-0.18-1.21,0.14-1.67c-0.07-0.71,0.27-1.46,1.16-1.65
						C226.87,169.061,243.31,172.011,256.74,180.321z M241.36,200.161c-6.43-10.5-17.63-17.65-28.58-22.92
						c-2.96,13.85-0.39,28.61,6.93,40.73C226.58,211.621,233.8,205.671,241.36,200.161z"/>
					<path style="fill:#FFA4A4;" d="M248.61,272.821c0.89,9.99-6.48,18.82-16.47,19.71c-9.99,0.89-18.82-6.48-19.71-16.47
						c-0.89-9.99,6.48-18.81,16.47-19.71C238.89,255.461,247.72,262.831,248.61,272.821z"/>
					<path style="fill:#3C4D68;" d="M212.78,177.241c10.95,5.27,22.15,12.42,28.58,22.92c-7.56,5.51-14.78,11.46-21.65,17.81
						C212.39,205.851,209.82,191.091,212.78,177.241z"/>
					<path style="fill:#3C4D68;" d="M192.87,384.271c0.83,0.14,1.58,0.92,1.19,1.95c-0.1,0.26-0.2,0.53-0.29,0.79
						c-0.99-0.22-1.98-0.45-2.96-0.69c0.14-0.38,0.29-0.76,0.43-1.14C191.53,384.401,192.23,384.151,192.87,384.271z"/>
					<path style="fill:#3C4D68;" d="M190.81,386.321c0.98,0.24,1.97,0.47,2.96,0.69c-2.73,7.24-5.24,14.56-7.55,21.94
						c-0.02,0.23-0.09,0.46-0.21,0.67c-0.01,0.05-0.03,0.09-0.04,0.14c-0.4,1.27-1.85,1.17-2.53,0.39
						c-9.15-2.58-18.16-5.92-26.16-11.13c0.68-0.75,1.35-1.51,2-2.28c7.48,4.8,15.86,7.91,24.39,10.36
						C185.86,400.121,188.24,393.181,190.81,386.321z"/>
					<path style="fill:#3C4D68;" d="M192.99,383.761l-0.12,0.51c-0.64-0.12-1.34,0.13-1.63,0.91c-0.14,0.38-0.29,0.76-0.43,1.14
						c-6.38-1.57-12.58-3.65-18.54-6.22c0.01-0.01,0.01-0.02,0.02-0.03c0.93-1.35-0.61-2.96-1.77-2.4c0.24-0.44,0.45-0.88,0.64-1.34
						C178.12,379.501,185.42,382.001,192.99,383.761z"/>
					<path style="fill:#3C4D68;" d="M170.52,377.671c1.16-0.56,2.7,1.05,1.77,2.4c-0.01,0.01-0.01,0.02-0.02,0.03
						c-0.86-0.36-1.71-0.74-2.56-1.13C170,378.551,170.27,378.111,170.52,377.671z"/>
					<path style="fill:#3C4D68;" d="M169.71,378.971c0.85,0.39,1.7,0.77,2.56,1.13c-4.03,5.77-8.36,11.33-12.99,16.64
						c-0.49-0.32-0.98-0.65-1.47-0.98c-0.28-0.19-0.56-0.27-0.83-0.27l0.31-1.03c4.51-5.22,8.75-10.66,12.7-16.32
						c0.16-0.23,0.34-0.38,0.53-0.47C170.27,378.111,170,378.551,169.71,378.971z"/>
					<path style="fill:#3C4D68;" d="M165.53,373.571c-0.61,0.81-1.23,1.62-1.85,2.42c-9.54-5.04-18.34-11.34-26.17-18.7
						c0.67-0.74,1.32-1.5,1.95-2.28C147.24,362.341,156.02,368.591,165.53,373.571z"/>
					<path style="fill:#3C4D68;" d="M157.81,395.761c0.49,0.33,0.98,0.66,1.47,0.98c-0.65,0.77-1.32,1.53-2,2.28
						c-0.4-0.26-0.8-0.52-1.19-0.79c-1.32-0.91-0.38-2.74,0.89-2.74C157.25,395.491,157.53,395.571,157.81,395.761z"/>
					<path style="fill:#3C4D68;" d="M157.29,394.461l-0.31,1.03c-1.27,0-2.21,1.83-0.89,2.74c0.39,0.27,0.79,0.53,1.19,0.79
						c-1.81,2.03-3.66,4.03-5.56,5.98c-0.33,0.66-1.05,1.08-1.88,0.62c-13.08-7.39-26.38-15.03-36.17-26.67
						c-0.53-0.64-0.39-1.32,0.05-1.77c0.02-0.04,0.04-0.08,0.06-0.12c5.56-8.86,11.41-17.53,17.59-25.96
						c0.69,0.75,1.38,1.49,2.09,2.22c-5.48,7.5-10.7,15.17-15.67,23.01c3.99-0.45,8.06-0.27,12.05,0.04
						c5.01,0.39,9.99,1.16,14.89,2.27c0.13,0.03,0.25,0.07,0.35,0.12c0.65,0.17,1.16,0.83,1.12,1.5c-0.16,2.71-0.11,5.49,0.14,8.17
						c2.72-0.73,5.43-1.49,8.12-2.32c0.26-0.08,0.51-0.07,0.74,0.01c0.1-0.02,0.19-0.03,0.29-0.03c0.86,0.03,1.4,0.73,1.45,1.54
						C157.1,389.901,157.21,392.181,157.29,394.461z M154.4,397.731c-0.06-2.79-0.18-5.59-0.35-8.37c-2.83,0.85-5.68,1.66-8.54,2.41
						c-0.58,0.15-1.14-0.09-1.5-0.52c-0.24-0.19-0.41-0.45-0.45-0.76c-0.38-3.03-0.51-6.08-0.4-9.13
						c-4.42-0.96-8.89-1.64-13.41-1.99c-3.88-0.3-7.87-0.52-11.76-0.06c8.98,9.77,20.66,16.54,32.13,23.03
						C151.57,400.821,152.99,399.281,154.4,397.731z"/>
					<path style="fill:#3C4D68;" d="M134.61,350.181c0.19,0.21,0.38,0.41,0.57,0.61c-0.13,0.2-0.27,0.4-0.41,0.6
						C134.91,350.961,134.83,350.531,134.61,350.181z"/>
					<path style="fill:#3C4D68;" d="M134.61,350.181c0.22,0.35,0.3,0.78,0.16,1.21c0,0.01,0,0.02,0,0.02
						c-0.37,0.55-0.74,1.1-1.11,1.64c-0.07,0.09-0.14,0.18-0.2,0.27c-0.71-0.73-1.4-1.47-2.09-2.22c0.28-0.39,0.57-0.77,0.85-1.16
						c0.53-0.71,1.29-0.7,1.86-0.32C134.25,349.811,134.43,350.001,134.61,350.181z"/>
					<path style="fill:#3C4D68;" d="M133.66,353.051c0.37-0.54,0.74-1.09,1.11-1.64c-0.05,0.16-0.13,0.3-0.24,0.45
						C134.24,352.261,133.95,352.651,133.66,353.051z"/>
					<path style="fill:#3C4D68;" d="M134.61,350.181c-0.18-0.18-0.36-0.37-0.53-0.56C134.29,349.761,134.48,349.951,134.61,350.181z
						"/>
					<path style="fill:#3C4D68;" d="M133.66,353.051c-0.06,0.09-0.13,0.19-0.19,0.28l-0.01-0.01
						C133.52,353.231,133.59,353.141,133.66,353.051z"/>
					<path style="fill:#3C4D68;" d="M134.08,349.621c-0.57-0.38-1.33-0.39-1.86,0.32c-0.28,0.39-0.57,0.77-0.85,1.16
						c-17.12-18.61-28.48-42.76-30.9-69.83c-1.66-18.56,1.05-36.53,7.29-52.87c0.02,0.19,0.04,0.39,0.05,0.58
						c0.11,1.68,2.39,1.48,2.86,0.11l0.03,0.01c-6.18,16.03-8.87,33.67-7.24,51.9C105.84,307.661,117.12,331.411,134.08,349.621z"/>
					<path style="fill:#3C4D68;" d="M110.76,228.451c0.01,0.23-0.02,0.45-0.09,0.64c-0.47,1.37-2.75,1.57-2.86-0.11
						c-0.01-0.19-0.03-0.39-0.05-0.58c0-0.01,0-0.01,0-0.01c0.62-1.63,1.28-3.24,1.98-4.84
						C110.3,225.131,110.65,226.781,110.76,228.451z"/>
					<path style="fill:#3C4D68;" d="M109.74,223.551c-0.7,1.6-1.36,3.21-1.98,4.84c-0.66-6.44-5.25-12.31-11.61-13.98
						c-2.49-0.66-5.17-0.57-7.68,0.12c2.78,5.04,3.01,11.54-1.32,15.87c-2.85,2.85-7.68,3.54-10.42,0.17
						c-2.86-3.52-1.65-8.34,0.7-11.77c1.63-2.39,3.86-4.28,6.38-5.61c-0.57-0.59-1.2-1.13-1.86-1.58c-2.73-1.85-6.16-2.44-9.38-1.83
						c-2.38,0.46-6.88,2.19-6.67,5.28c0.13,1.91-2.82,2.45-2.95,0.52c-0.34-4.85,4.53-7.76,8.71-8.67c4.5-0.99,9.47,0.06,13.05,3.02
						c0.73,0.61,1.4,1.29,2.02,2.03c3.36-1.1,7.02-1.29,10.46-0.37C103.02,213.151,107.72,217.901,109.74,223.551z M86,227.101
						c2.35-3.54,1.8-8.02-0.33-11.52c-1.89,0.93-3.6,2.21-4.93,3.81c-1.93,2.31-3.86,6.09-1.94,8.95
						C80.77,231.291,84.45,229.441,86,227.101z"/>
				</g>
			</g>
		</g>
		<g>
			<g>
				<polygon style="fill:#FC7E7E;" points="126.78,315.076 124.013,313.23 187.46,218.177 194.547,222.907 				"/>
			</g>
			<g>
				<path style="fill:#FC7E7E;" d="M149.229,260.231c-9.464,0-16.877-10.483-16.877-23.865c0-13.382,7.413-23.865,16.877-23.865
					c9.464,0,16.877,10.483,16.877,23.865C166.106,249.749,158.693,260.231,149.229,260.231z M152.273,221.022
					c-3.952,0-8.356,6.302-8.356,15.345s4.404,15.345,8.356,15.345c3.952,0,8.356-6.302,8.356-15.345
					S156.225,221.022,152.273,221.022z"/>
			</g>
			<g>
				<path style="fill:#FC7E7E;" d="M169.612,325c-9.464,0-16.877-10.483-16.877-23.865c0-13.382,7.413-23.865,16.877-23.865
					c9.464,0,16.877,10.483,16.877,23.865C186.489,314.518,179.076,325,169.612,325z M172.656,285.791
					c-3.952,0-8.356,6.302-8.356,15.345s4.404,15.345,8.356,15.345c3.952,0,8.356-6.302,8.356-15.345
					S176.608,285.791,172.656,285.791z"/>
			</g>
		</g>
	</g>
</g>
</svg>
